<svg width="40" height="40" viewBox="0 0 40 40" fill="none" xmlns="http://www.w3.org/2000/svg">
<mask id="mask0_13_7" style="mask-type:alpha" maskUnits="userSpaceOnUse" x="0" y="0" width="40" height="40">
<rect width="40" height="40" fill="#D9D9D9"/>
</mask>
<g mask="url(#mask0_13_7)">
<path d="M10.9269 35.6594C9.9104 35.6594 9.04153 35.3004 8.32031 34.5822C7.59909 33.8641 7.23847 32.9989 7.23847 31.9867V9.37861H6.93293C6.41904 9.37861 5.9845 9.20056 5.62931 8.84445C5.27414 8.48833 5.09656 8.05264 5.09656 7.53736C5.09656 7.02208 5.27414 6.58802 5.62931 6.23515C5.9845 5.88229 6.41904 5.70586 6.93293 5.70586H14.2427C14.2427 5.18733 14.4203 4.74903 14.7755 4.39095C15.1307 4.03286 15.5652 3.85382 16.0791 3.85382H23.9209C24.4335 3.85382 24.8703 4.03435 25.2314 4.3954C25.5924 4.75646 25.773 5.19328 25.773 5.70586H33.0671C33.581 5.70586 34.0155 5.88392 34.3707 6.24003C34.7259 6.59614 34.9035 7.03184 34.9035 7.54711C34.9035 8.06239 34.7259 8.49646 34.3707 8.84932C34.0155 9.20218 33.581 9.37861 33.0671 9.37861H32.7616V31.9867C32.7616 32.9989 32.4009 33.8641 31.6797 34.5822C30.9585 35.3004 30.0896 35.6594 29.0731 35.6594H10.9269ZM10.9269 9.37861V31.9867H29.0731V9.37861H10.9269ZM14.8491 27.0978C14.8491 27.5408 15.0059 27.9183 15.3195 28.2305C15.6332 28.5426 16.0126 28.6987 16.4578 28.6987C16.903 28.6987 17.2837 28.5426 17.5999 28.2305C17.9162 27.9183 18.0743 27.5408 18.0743 27.0978V14.2397C18.0743 13.7967 17.9135 13.4153 17.5921 13.0953C17.2706 12.7753 16.8872 12.6153 16.442 12.6153C15.9968 12.6153 15.62 12.7753 15.3116 13.0953C15.0032 13.4153 14.8491 13.7967 14.8491 14.2397V27.0978ZM21.9258 27.0978C21.9258 27.5408 22.0865 27.9183 22.408 28.2305C22.7295 28.5426 23.1128 28.6987 23.5581 28.6987C24.0033 28.6987 24.3827 28.5426 24.6963 28.2305C25.0099 27.9183 25.1667 27.5408 25.1667 27.0978V14.2397C25.1667 13.7967 25.0088 13.4153 24.6931 13.0953C24.3773 12.7753 23.9953 12.6153 23.5469 12.6153C23.0986 12.6153 22.7163 12.7753 22.4001 13.0953C22.0839 13.4153 21.9258 13.7967 21.9258 14.2397V27.0978Z" fill="white"/>
</g>
</svg>
